<?xml version="1.0" standalone="no"?>
<!DOCTYPE svg PUBLIC "-//W3C//DTD SVG 20010904//EN"
 "http://www.w3.org/TR/2001/REC-SVG-20010904/DTD/svg10.dtd">
<svg version="1.0" xmlns="http://www.w3.org/2000/svg"
 width="700.000000pt" height="700.000000pt" viewBox="0 0 700.000000 700.000000"
 preserveAspectRatio="xMidYMid meet">
<metadata>
Created by potrace 1.11, written by Peter Selinger 2001-2013
</metadata>
<g transform="translate(0.000000,700.000000) scale(0.100000,-0.100000)"
fill="#000000" stroke="none">
<path d="M3012 6580 c-402 -28 -871 -100 -1141 -176 -453 -128 -738 -267 -916
-448 -154 -156 -165 -198 -165 -602 l0 -301 -82 -5 c-136 -9 -224 -64 -274
-172 l-24 -51 0 -544 c0 -375 3 -555 11 -581 18 -59 78 -130 138 -164 47 -26
68 -31 143 -34 l88 -4 0 -973 c0 -615 4 -992 10 -1026 30 -161 169 -295 326
-315 l53 -6 3 -237 c3 -219 5 -240 26 -293 32 -81 107 -160 190 -200 l67 -33
281 -3 c266 -3 284 -2 337 18 116 44 211 148 242 265 11 44 15 113 15 272 l0
213 1160 0 1160 0 0 -213 c0 -160 4 -228 15 -272 29 -111 108 -204 214 -254
l56 -26 295 0 295 0 67 33 c83 40 158 119 190 200 21 53 23 74 26 293 l3 237
82 4 c131 7 227 71 281 187 21 46 21 48 24 1087 l2 1042 88 4 c75 3 96 8 143
34 60 34 120 105 138 164 8 26 11 206 11 581 l0 544 -24 51 c-50 108 -138 163
-273 172 l-83 5 0 301 c0 404 -11 446 -165 602 -299 304 -965 521 -1875 610
-190 19 -954 28 -1158 14z m1620 -788 c21 -21 23 -33 26 -156 l4 -134 -30 -33
-30 -34 -1102 0 -1102 0 -29 33 c-29 32 -29 34 -29 155 0 132 9 163 50 184 20
10 255 12 1122 10 l1097 -2 23 -23z m-1327 -1712 l0 -965 -715 0 -715 0 -57
23 c-117 47 -214 155 -238 265 -8 36 -10 249 -8 707 l3 655 28 56 c54 111 147
187 262 215 37 9 227 12 745 11 l695 -2 0 -965z m1817 959 c118 -25 220 -105
274 -214 l29 -60 3 -655 c2 -458 0 -671 -8 -707 -24 -110 -121 -218 -238 -265
l-57 -23 -715 0 -715 0 -3 955 c-1 525 0 961 3 968 6 17 1347 18 1427 1z
m-3199 -2543 c196 -94 278 -331 181 -523 -35 -68 -118 -147 -191 -181 -50 -23
-71 -27 -153 -27 -86 0 -101 3 -160 31 -160 77 -253 252 -220 417 28 142 121
251 255 300 77 27 212 19 288 -17z m3482 -1 c152 -73 245 -246 216 -406 -23
-131 -102 -236 -221 -293 -59 -28 -74 -31 -160 -31 -87 0 -101 3 -160 32 -315
155 -295 593 33 714 79 30 212 22 292 -16z"/>
</g>
</svg>
